<?xml version="1.0" encoding="UTF-8"?>
<svg xmlns="http://www.w3.org/2000/svg" viewBox="0 0 831.63 816.56">
  <defs>
    <style>
      .cls-1 {
        fill: #4c89fe;
      }

      .cls-2 {
        fill: #fff;
      }
    </style>
  </defs>
  <g id="bubble">
    <g id="Layer_8" data-name="Layer 8">
      <path class="cls-1" d="M406.54,84.52c-175.35,0-317.5,142.15-317.5,317.5s142.15,317.5,317.5,317.5h264.86c29.07,0,52.63-23.56,52.63-52.63v-264.86c0-175.35-142.15-317.5-317.5-317.5Z"/>
    </g>
  </g>
  <g id="w">
    <path class="cls-2" d="M245.15,458.27c-2.1,0-3.93-.52-5.48-1.58-1.55-1.05-2.77-2.72-3.67-5.02l-22.05-58.35c-.8-2-1.05-3.77-.75-5.33.3-1.55,1.07-2.77,2.33-3.67,1.25-.9,2.87-1.35,4.88-1.35,1.8,0,3.27.43,4.42,1.27,1.15.85,2.12,2.48,2.93,4.88l19.65,55.35h-3.6l20.4-55.95c.7-1.9,1.65-3.3,2.85-4.2,1.2-.9,2.75-1.35,4.65-1.35s3.47.45,4.73,1.35c1.25.9,2.17,2.3,2.77,4.2l19.95,55.95h-3.3l19.95-55.65c.8-2.3,1.82-3.85,3.08-4.65,1.25-.8,2.67-1.2,4.27-1.2,2,0,3.52.5,4.57,1.5,1.05,1,1.65,2.28,1.8,3.83.15,1.55-.13,3.22-.83,5.02l-22.05,58.35c-.9,2.2-2.13,3.85-3.68,4.95-1.55,1.1-3.33,1.65-5.32,1.65-2.1,0-3.93-.55-5.48-1.65-1.55-1.1-2.77-2.75-3.67-4.95l-21-56.85h7.5l-20.85,56.85c-.8,2.2-1.98,3.85-3.52,4.95-1.55,1.1-3.38,1.65-5.48,1.65Z"/>
  </g>
  <g id="e">
    <path class="cls-2" d="M400.53,458.57c-8,0-14.88-1.52-20.62-4.57-5.75-3.05-10.2-7.4-13.35-13.05-3.15-5.65-4.73-12.38-4.73-20.17s1.55-14.25,4.65-19.95c3.1-5.7,7.35-10.15,12.75-13.35,5.4-3.2,11.55-4.8,18.45-4.8,5.1,0,9.65.82,13.65,2.47,4,1.65,7.43,4.05,10.28,7.2,2.85,3.15,5,6.97,6.45,11.47,1.45,4.5,2.18,9.55,2.18,15.15,0,1.7-.5,2.98-1.5,3.83-1,.85-2.5,1.27-4.5,1.27h-50.4v-9.3h46.2l-2.55,2.1c0-5-.73-9.25-2.18-12.75-1.45-3.5-3.6-6.17-6.45-8.02-2.85-1.85-6.38-2.78-10.58-2.78-4.7,0-8.68,1.1-11.92,3.3-3.25,2.2-5.73,5.25-7.43,9.15-1.7,3.9-2.55,8.45-2.55,13.65v.9c0,8.8,2.07,15.43,6.23,19.88,4.15,4.45,10.17,6.68,18.07,6.68,3,0,6.17-.4,9.52-1.2,3.35-.8,6.53-2.15,9.53-4.05,1.7-1,3.22-1.45,4.57-1.35,1.35.1,2.45.55,3.3,1.35.85.8,1.37,1.8,1.57,3,.2,1.2,0,2.43-.6,3.67-.6,1.25-1.65,2.38-3.15,3.38-3.4,2.3-7.35,4.03-11.85,5.17s-8.85,1.72-13.05,1.72Z"/>
  </g>
  <g id="l1">
    <path class="cls-2" d="M501.32,458.57c-7.8,0-13.68-2.27-17.62-6.82-3.95-4.55-5.93-11.12-5.93-19.73v-73.95c0-2.5.65-4.4,1.95-5.7,1.3-1.3,3.15-1.95,5.55-1.95s4.28.65,5.62,1.95c1.35,1.3,2.03,3.2,2.03,5.7v73.05c0,5,1.02,8.73,3.08,11.18,2.05,2.45,5.02,3.67,8.92,3.67.9,0,1.7-.02,2.4-.08.7-.05,1.4-.12,2.1-.22,1.2-.1,2.05.22,2.55.97.5.75.75,2.28.75,4.58,0,2.1-.45,3.73-1.35,4.88-.9,1.15-2.35,1.88-4.35,2.17-.9.1-1.85.17-2.85.23-1,.05-1.95.07-2.85.07Z"/>
  </g>
  <g id="l2">
    <path class="cls-2" d="M583.01,458.57c-7.8,0-13.68-2.27-17.62-6.82-3.95-4.55-5.92-11.12-5.92-19.73v-73.95c0-2.5.65-4.4,1.95-5.7s3.15-1.95,5.55-1.95,4.27.65,5.62,1.95c1.35,1.3,2.02,3.2,2.02,5.7v73.05c0,5,1.02,8.73,3.08,11.17,2.05,2.45,5.03,3.67,8.92,3.67.9,0,1.7-.02,2.4-.08.7-.05,1.4-.12,2.1-.22,1.2-.1,2.05.22,2.55.97.5.75.75,2.28.75,4.58,0,2.1-.45,3.73-1.35,4.88s-2.35,1.88-4.35,2.17c-.9.1-1.85.17-2.85.23-1,.05-1.95.07-2.85.07Z"/>
  </g>
</svg>