<?xml version="1.0" encoding="UTF-8"?>
<svg id="main_logo" data-name="main logo" xmlns="http://www.w3.org/2000/svg" viewBox="0 0 1000 273.32">
  <defs>
    <style>
      .cls-1 {
        fill: none;
        stroke: #4c89fe;
        stroke-linecap: round;
        stroke-miterlimit: 1;
        stroke-width: 11px;
      }

      .cls-2 {
        fill: #4c89fe;
      }

      .cls-3 {
        fill: #fff;
      }
    </style>
  </defs>
  <g>
    <g>
      <path class="cls-2" d="M87.34,219.52c-1.5,0-2.89-.45-4.16-1.35-1.28-.9-2.29-2.32-3.04-4.27l-34.42-98.1c-.6-1.8-.75-3.26-.45-4.39.3-1.12.86-1.99,1.69-2.59.82-.6,1.76-.9,2.81-.9,1.35,0,2.4.3,3.15.9.75.6,1.35,1.65,1.8,3.15l35.33,103.28h-5.85l36.45-101.7c.75-1.95,1.76-3.38,3.04-4.27,1.27-.9,2.74-1.35,4.39-1.35s3.15.45,4.5,1.35,2.32,2.33,2.92,4.27l35.55,101.7h-5.85l36.23-103.28c.6-1.65,1.24-2.73,1.91-3.26.68-.52,1.76-.79,3.26-.79s2.55.38,3.15,1.12c.6.75.94,1.73,1.01,2.92.07,1.2-.11,2.48-.56,3.83l-34.88,98.1c-.6,1.95-1.54,3.38-2.81,4.27-1.28.9-2.67,1.35-4.16,1.35s-2.89-.45-4.16-1.35c-1.28-.9-2.29-2.32-3.04-4.27l-36.45-103.05h6.98l-37.12,103.05c-.6,1.95-1.54,3.38-2.81,4.27-1.28.9-2.74,1.35-4.39,1.35Z"/>
      <path class="cls-2" d="M290.07,219.97c-10.8,0-20.1-2.25-27.9-6.75-7.8-4.5-13.84-10.91-18.11-19.24s-6.41-18.26-6.41-29.81,2.14-21.34,6.41-29.81c4.27-8.47,10.2-15.08,17.77-19.8,7.57-4.73,16.31-7.09,26.21-7.09,7.05,0,13.31,1.2,18.79,3.6,5.47,2.4,10.12,5.85,13.95,10.35s6.75,9.98,8.77,16.42c2.02,6.45,3.04,13.73,3.04,21.83,0,1.95-.42,3.41-1.24,4.39-.83.98-2.06,1.46-3.71,1.46h-83.92v-8.33h83.92l-3.82,2.7c0-9.15-1.35-16.99-4.05-23.51-2.7-6.52-6.71-11.55-12.04-15.07-5.33-3.52-11.96-5.29-19.91-5.29-8.7,0-16.09,2.06-22.16,6.19-6.08,4.13-10.65,9.71-13.73,16.76-3.08,7.05-4.61,15.08-4.61,24.08v1.12c0,15,3.71,26.59,11.14,34.76,7.43,8.18,17.81,12.26,31.16,12.26,6,0,11.62-.79,16.88-2.36,5.25-1.58,10.42-4.39,15.52-8.44,1.05-.9,2.14-1.39,3.26-1.46,1.12-.07,2.1.15,2.92.67.82.53,1.42,1.2,1.8,2.02.37.83.41,1.77.11,2.81-.3,1.05-1.05,2.02-2.25,2.93-4.65,3.9-10.35,6.97-17.1,9.22s-13.65,3.38-20.7,3.38Z"/>
      <path class="cls-2" d="M397.84,219.97c-9.45,0-16.76-3.04-21.94-9.11-5.18-6.08-7.76-14.59-7.76-25.54V63.14c0-1.65.41-2.89,1.24-3.71s1.99-1.24,3.49-1.24,2.66.42,3.49,1.24c.82.83,1.24,2.06,1.24,3.71v120.6c0,9.15,1.8,16.01,5.4,20.59,3.6,4.58,8.85,6.86,15.75,6.86,1.5,0,2.77-.07,3.82-.23,1.05-.15,2.1-.22,3.15-.22,1.2,0,2.14.22,2.81.67.67.45,1.01,1.35,1.01,2.7,0,1.65-.45,2.85-1.35,3.6-.9.75-2.4,1.35-4.5,1.8-1.05.15-2.06.26-3.04.34-.98.07-1.91.11-2.81.11Z"/>
      <path class="cls-2" d="M465.34,219.97c-9.45,0-16.76-3.04-21.94-9.11-5.18-6.08-7.76-14.59-7.76-25.54V63.14c0-1.65.41-2.89,1.24-3.71s1.99-1.24,3.49-1.24,2.66.42,3.49,1.24c.82.83,1.24,2.06,1.24,3.71v120.6c0,9.15,1.8,16.01,5.4,20.59,3.6,4.58,8.85,6.86,15.75,6.86,1.5,0,2.77-.07,3.82-.23,1.05-.15,2.1-.22,3.15-.22,1.2,0,2.14.22,2.81.67.67.45,1.01,1.35,1.01,2.7,0,1.65-.45,2.85-1.35,3.6-.9.75-2.4,1.35-4.5,1.8-1.05.15-2.06.26-3.04.34-.98.07-1.91.11-2.81.11Z"/>
    </g>
    <g>
      <path class="cls-1" d="M87.34,219.52c-1.5,0-2.89-.45-4.16-1.35-1.28-.9-2.29-2.32-3.04-4.27l-34.42-98.1c-.6-1.8-.75-3.26-.45-4.39.3-1.12.86-1.99,1.69-2.59.82-.6,1.76-.9,2.81-.9,1.35,0,2.4.3,3.15.9.75.6,1.35,1.65,1.8,3.15l35.33,103.28h-5.85l36.45-101.7c.75-1.95,1.76-3.38,3.04-4.27,1.27-.9,2.74-1.35,4.39-1.35s3.15.45,4.5,1.35,2.32,2.33,2.92,4.27l35.55,101.7h-5.85l36.23-103.28c.6-1.65,1.24-2.73,1.91-3.26.68-.52,1.76-.79,3.26-.79s2.55.38,3.15,1.12c.6.75.94,1.73,1.01,2.92.07,1.2-.11,2.48-.56,3.83l-34.88,98.1c-.6,1.95-1.54,3.38-2.81,4.27-1.28.9-2.67,1.35-4.16,1.35s-2.89-.45-4.16-1.35c-1.28-.9-2.29-2.32-3.04-4.27l-36.45-103.05h6.98l-37.12,103.05c-.6,1.95-1.54,3.38-2.81,4.27-1.28.9-2.74,1.35-4.39,1.35Z"/>
      <path class="cls-1" d="M290.07,219.97c-10.8,0-20.1-2.25-27.9-6.75-7.8-4.5-13.84-10.91-18.11-19.24s-6.41-18.26-6.41-29.81,2.14-21.34,6.41-29.81c4.27-8.47,10.2-15.08,17.77-19.8,7.57-4.73,16.31-7.09,26.21-7.09,7.05,0,13.31,1.2,18.79,3.6,5.47,2.4,10.12,5.85,13.95,10.35s6.75,9.98,8.77,16.42c2.02,6.45,3.04,13.73,3.04,21.83,0,1.95-.42,3.41-1.24,4.39-.83.98-2.06,1.46-3.71,1.46h-83.92v-8.33h83.92l-3.82,2.7c0-9.15-1.35-16.99-4.05-23.51-2.7-6.52-6.71-11.55-12.04-15.07-5.33-3.52-11.96-5.29-19.91-5.29-8.7,0-16.09,2.06-22.16,6.19-6.08,4.13-10.65,9.71-13.73,16.76-3.08,7.05-4.61,15.08-4.61,24.08v1.12c0,15,3.71,26.59,11.14,34.76,7.43,8.18,17.81,12.26,31.16,12.26,6,0,11.62-.79,16.88-2.36,5.25-1.58,10.42-4.39,15.52-8.44,1.05-.9,2.14-1.39,3.26-1.46,1.12-.07,2.1.15,2.92.67.82.53,1.42,1.2,1.8,2.02.37.83.41,1.77.11,2.81-.3,1.05-1.05,2.02-2.25,2.93-4.65,3.9-10.35,6.97-17.1,9.22s-13.65,3.38-20.7,3.38Z"/>
      <path class="cls-1" d="M397.84,219.97c-9.45,0-16.76-3.04-21.94-9.11-5.18-6.08-7.76-14.59-7.76-25.54V63.14c0-1.65.41-2.89,1.24-3.71s1.99-1.24,3.49-1.24,2.66.42,3.49,1.24c.82.83,1.24,2.06,1.24,3.71v120.6c0,9.15,1.8,16.01,5.4,20.59,3.6,4.58,8.85,6.86,15.75,6.86,1.5,0,2.77-.07,3.82-.23,1.05-.15,2.1-.22,3.15-.22,1.2,0,2.14.22,2.81.67.67.45,1.01,1.35,1.01,2.7,0,1.65-.45,2.85-1.35,3.6-.9.75-2.4,1.35-4.5,1.8-1.05.15-2.06.26-3.04.34-.98.07-1.91.11-2.81.11Z"/>
      <path class="cls-1" d="M465.34,219.97c-9.45,0-16.76-3.04-21.94-9.11-5.18-6.08-7.76-14.59-7.76-25.54V63.14c0-1.65.41-2.89,1.24-3.71s1.99-1.24,3.49-1.24,2.66.42,3.49,1.24c.82.83,1.24,2.06,1.24,3.71v120.6c0,9.15,1.8,16.01,5.4,20.59,3.6,4.58,8.85,6.86,15.75,6.86,1.5,0,2.77-.07,3.82-.23,1.05-.15,2.1-.22,3.15-.22,1.2,0,2.14.22,2.81.67.67.45,1.01,1.35,1.01,2.7,0,1.65-.45,2.85-1.35,3.6-.9.75-2.4,1.35-4.5,1.8-1.05.15-2.06.26-3.04.34-.98.07-1.91.11-2.81.11Z"/>
    </g>
    <g>
      <path class="cls-3" d="M87.34,219.52c-1.5,0-2.89-.45-4.16-1.35-1.28-.9-2.29-2.32-3.04-4.27l-34.42-98.1c-.6-1.8-.75-3.26-.45-4.39.3-1.12.86-1.99,1.69-2.59.82-.6,1.76-.9,2.81-.9,1.35,0,2.4.3,3.15.9.75.6,1.35,1.65,1.8,3.15l35.33,103.28h-5.85l36.45-101.7c.75-1.95,1.76-3.38,3.04-4.27,1.27-.9,2.74-1.35,4.39-1.35s3.15.45,4.5,1.35,2.32,2.33,2.92,4.27l35.55,101.7h-5.85l36.23-103.28c.6-1.65,1.24-2.73,1.91-3.26.68-.52,1.76-.79,3.26-.79s2.55.38,3.15,1.12c.6.75.94,1.73,1.01,2.92.07,1.2-.11,2.48-.56,3.83l-34.88,98.1c-.6,1.95-1.54,3.38-2.81,4.27-1.28.9-2.67,1.35-4.16,1.35s-2.89-.45-4.16-1.35c-1.28-.9-2.29-2.32-3.04-4.27l-36.45-103.05h6.98l-37.12,103.05c-.6,1.95-1.54,3.38-2.81,4.27-1.28.9-2.74,1.35-4.39,1.35Z"/>
      <path class="cls-3" d="M290.07,219.97c-10.8,0-20.1-2.25-27.9-6.75-7.8-4.5-13.84-10.91-18.11-19.24s-6.41-18.26-6.41-29.81,2.14-21.34,6.41-29.81c4.27-8.47,10.2-15.08,17.77-19.8,7.57-4.73,16.31-7.09,26.21-7.09,7.05,0,13.31,1.2,18.79,3.6,5.47,2.4,10.12,5.85,13.95,10.35s6.75,9.98,8.77,16.42c2.02,6.45,3.04,13.73,3.04,21.83,0,1.95-.42,3.41-1.24,4.39-.83.98-2.06,1.46-3.71,1.46h-83.92v-8.33h83.92l-3.82,2.7c0-9.15-1.35-16.99-4.05-23.51-2.7-6.52-6.71-11.55-12.04-15.07-5.33-3.52-11.96-5.29-19.91-5.29-8.7,0-16.09,2.06-22.16,6.19-6.08,4.13-10.65,9.71-13.73,16.76-3.08,7.05-4.61,15.08-4.61,24.08v1.12c0,15,3.71,26.59,11.14,34.76,7.43,8.18,17.81,12.26,31.16,12.26,6,0,11.62-.79,16.88-2.36,5.25-1.58,10.42-4.39,15.52-8.44,1.05-.9,2.14-1.39,3.26-1.46,1.12-.07,2.1.15,2.92.67.82.53,1.42,1.2,1.8,2.02.37.83.41,1.77.11,2.81-.3,1.05-1.05,2.02-2.25,2.93-4.65,3.9-10.35,6.97-17.1,9.22s-13.65,3.38-20.7,3.38Z"/>
      <path class="cls-3" d="M397.84,219.97c-9.45,0-16.76-3.04-21.94-9.11-5.18-6.08-7.76-14.59-7.76-25.54V63.14c0-1.65.41-2.89,1.24-3.71s1.99-1.24,3.49-1.24,2.66.42,3.49,1.24c.82.83,1.24,2.06,1.24,3.71v120.6c0,9.15,1.8,16.01,5.4,20.59,3.6,4.58,8.85,6.86,15.75,6.86,1.5,0,2.77-.07,3.82-.23,1.05-.15,2.1-.22,3.15-.22,1.2,0,2.14.22,2.81.67.67.45,1.01,1.35,1.01,2.7,0,1.65-.45,2.85-1.35,3.6-.9.75-2.4,1.35-4.5,1.8-1.05.15-2.06.26-3.04.34-.98.07-1.91.11-2.81.11Z"/>
      <path class="cls-3" d="M465.34,219.97c-9.45,0-16.76-3.04-21.94-9.11-5.18-6.08-7.76-14.59-7.76-25.54V63.14c0-1.65.41-2.89,1.24-3.71s1.99-1.24,3.49-1.24,2.66.42,3.49,1.24c.82.83,1.24,2.06,1.24,3.71v120.6c0,9.15,1.8,16.01,5.4,20.59,3.6,4.58,8.85,6.86,15.75,6.86,1.5,0,2.77-.07,3.82-.23,1.05-.15,2.1-.22,3.15-.22,1.2,0,2.14.22,2.81.67.67.45,1.01,1.35,1.01,2.7,0,1.65-.45,2.85-1.35,3.6-.9.75-2.4,1.35-4.5,1.8-1.05.15-2.06.26-3.04.34-.98.07-1.91.11-2.81.11Z"/>
    </g>
  </g>
  <path class="cls-2" d="M541.27,222.22c-6.6,0-13.39-.75-20.36-2.25s-13.39-4.05-19.24-7.65c-1.95-1.35-3.3-2.85-4.05-4.5-.75-1.65-1.01-3.34-.79-5.06.22-1.72.9-3.22,2.02-4.5,1.12-1.27,2.55-2.06,4.27-2.36,1.72-.3,3.56.08,5.51,1.12,5.85,3.3,11.47,5.59,16.88,6.86,5.4,1.28,10.72,1.91,15.97,1.91,7.95,0,13.95-1.42,18-4.27,4.05-2.85,6.08-6.67,6.08-11.48,0-3.9-1.35-6.94-4.05-9.11-2.7-2.17-6.75-3.86-12.15-5.06l-21.38-4.27c-9.3-1.95-16.35-5.4-21.15-10.35-4.8-4.95-7.2-11.25-7.2-18.9,0-6.9,1.87-12.9,5.62-18,3.75-5.1,9-9.04,15.75-11.81,6.75-2.77,14.55-4.16,23.4-4.16,6.6,0,12.82.83,18.67,2.48,5.85,1.65,11.25,4.13,16.2,7.43,1.95,1.05,3.22,2.44,3.82,4.16.6,1.73.71,3.41.34,5.06-.38,1.65-1.16,3.12-2.36,4.39-1.2,1.28-2.66,2.02-4.39,2.25-1.73.23-3.64-.19-5.74-1.24-4.5-2.85-8.96-4.87-13.39-6.08-4.43-1.2-8.81-1.8-13.16-1.8-7.95,0-13.92,1.46-17.89,4.39-3.98,2.93-5.96,6.86-5.96,11.81,0,3.75,1.2,6.83,3.6,9.23,2.4,2.4,6.15,4.13,11.25,5.17l21.38,4.28c9.75,1.95,17.14,5.25,22.16,9.9,5.02,4.65,7.54,10.95,7.54,18.9,0,10.35-4.13,18.53-12.38,24.52-8.25,6-19.2,9-32.85,9Z"/>
  <path class="cls-2" d="M663.29,105.89c-31.56,0-57.15,25.59-57.15,57.15s25.59,57.15,57.15,57.15h47.68c5.23,0,9.47-4.24,9.47-9.47v-47.68c0-31.56-25.59-57.15-57.15-57.15ZM636.47,171.21c-4.51,0-8.17-3.66-8.17-8.17s3.66-8.17,8.17-8.17,8.17,3.66,8.17,8.17-3.66,8.17-8.17,8.17ZM663.29,171.21c-4.51,0-8.17-3.66-8.17-8.17s3.66-8.17,8.17-8.17,8.17,3.66,8.17,8.17-3.66,8.17-8.17,8.17ZM690.53,171.21c-4.51,0-8.17-3.66-8.17-8.17s3.66-8.17,8.17-8.17,8.17,3.66,8.17,8.17-3.66,8.17-8.17,8.17Z"/>
  <path class="cls-2" d="M763.75,61.46c-2.48-2.17-5.96-3.26-10.46-3.26s-7.99,1.09-10.46,3.26c-2.48,2.18-3.71,5.36-3.71,9.56s1.24,7.2,3.71,9.45c2.47,2.25,5.96,3.38,10.46,3.38s7.99-1.12,10.46-3.38,3.71-5.4,3.71-9.45-1.24-7.39-3.71-9.56Z"/>
  <path class="cls-2" d="M753.29,107.24c-3.6,0-6.38,1.05-8.33,3.15-1.95,2.1-2.92,5.1-2.92,9v87.75c0,3.9.97,6.94,2.92,9.11,1.95,2.17,4.73,3.26,8.33,3.26s6.6-1.09,8.55-3.26c1.95-2.17,2.93-5.21,2.93-9.11v-87.75c0-3.9-1.01-6.9-3.04-9-2.02-2.1-4.84-3.15-8.44-3.15Z"/>
  <path class="cls-2" d="M886.26,57.97c-3.6,0-6.38.98-8.32,2.93-1.95,1.95-2.93,4.8-2.93,8.55v56.9c-2.65-5.15-6.51-9.46-11.59-12.91-6.98-4.73-15.26-7.09-24.86-7.09s-18.04,2.33-25.31,6.98c-7.28,4.65-12.94,11.18-16.99,19.58-4.05,8.4-6.07,18.53-6.07,30.38s2.02,21.64,6.07,30.26c4.05,8.63,9.71,15.23,16.99,19.8,7.27,4.58,15.71,6.86,25.31,6.86h0s0,0,0,0c0,0,0,0,0,0,0,0,.01,0,.02,0l47.84-.45s.04,0,.07,0c3.6,0,6.37-1.01,8.33-3.04,1.95-2.02,2.92-4.84,2.92-8.44V69.44c0-3.75-1.01-6.6-3.04-8.55-2.02-1.95-4.84-2.93-8.44-2.93ZM821.69,192.52c-5.7-6.75-8.55-16.5-8.55-29.25,0-8.55,1.31-15.75,3.94-21.6,2.62-5.85,6.26-10.24,10.91-13.16,4.65-2.92,10.12-4.39,16.42-4.39,9.3,0,16.8,3.3,22.5,9.9,5.7,6.6,8.55,16.35,8.55,29.25,0,8.55-1.31,15.75-3.94,21.6-2.63,5.85-6.27,10.28-10.91,13.27-4.65,3-10.05,4.5-16.2,4.5-9.45,0-17.03-3.38-22.72-10.12Z"/>
  <path class="cls-2" d="M951.06,194.43c-2.55-2.62-6-3.94-10.35-3.94s-7.88,1.31-10.58,3.94c-2.7,2.63-4.05,6.04-4.05,10.24s1.35,7.65,4.05,10.35c2.7,2.7,6.22,4.05,10.58,4.05s7.8-1.35,10.35-4.05c2.55-2.7,3.82-6.15,3.82-10.35s-1.28-7.61-3.82-10.24Z"/>
</svg>